<svg id="Layer_1" data-name="Layer 1" xmlns="http://www.w3.org/2000/svg" viewBox="0 0 924.41 186.23"><defs><style>.cls-1{fill:#1b322e;}.cls-2{fill:#c2bd19;}.cls-3{fill:#203232;}</style></defs><title>GTAC_Logo-Ctr</title><path class="cls-1" d="M0,131.95V54.26c0-16.7,8-24.69,24.69-24.69H74.78c16.7,0,24.69,8,24.69,24.69V73.58H65.71V60.79c0-2.54-.72-3.27-3.27-3.27H37.39c-2.54,0-3.27.72-3.27,3.27v64.61c0,2.54.72,3.27,3.27,3.27H62.44c2.54,0,3.27-.72,3.27-3.27v-16H51.22V82.57H99.47v49.38c0,16.69-8,24.68-24.69,24.68H24.69C8,156.63,0,148.64,0,131.95" transform="translate(0 0)"/><polygon class="cls-1" points="141.28 58.61 109.51 58.61 109.51 29.57 207.16 29.57 207.16 58.61 175.39 58.61 175.39 156.63 141.28 156.63 141.28 58.61"/><path class="cls-1" d="M325.61,131.95V54.26c0-16.7,8.35-24.69,25.05-24.69h48.46c16.7,0,24.32,8,24.32,24.69V78H389.32V61.16c0-2.54-.73-3.27-3.26-3.27H363c-2.54,0-3.27.72-3.27,3.27V125c0,2.54.72,3.27,3.27,3.27h23.06c2.53,0,3.26-.72,3.26-3.27V105.9h34.12v26c0,16.69-8,24.68-24.68,24.68H350.3c-16.7,0-24.69-8-24.69-24.68" transform="translate(0 0)"/><polygon class="cls-2" points="275.57 171.96 257.3 100.83 239.02 171.96 275.57 171.96"/><polygon class="cls-1" points="318.28 156.63 279.62 29.57 234.61 29.57 196.31 156.63 231.16 156.63 256.57 57.34 281.98 156.63 318.28 156.63"/><rect class="cls-3" x="461.57" width="3" height="186.23"/><path class="cls-3" d="M524.4,79.36a11.75,11.75,0,0,1-4.57,3,16.68,16.68,0,0,1-5.92,1q-5.5,0-8.54-3.4t-3.13-9.91V64.36q0-6.59,2.88-10.15t8.4-3.56q5.19,0,7.83,2.56t3.05,8h-6.26q-.26-3-1.27-4.15A4.06,4.06,0,0,0,513.72,56a4.12,4.12,0,0,0-3.79,1.9q-1.18,1.91-1.23,6.06v5.78q0,4.36,1.3,6.34a4.74,4.74,0,0,0,4.28,2,5.59,5.59,0,0,0,3.09-.77l.57-.39V71.06h-4.51V66.2h11Z" transform="translate(0 0)"/><path class="cls-3" d="M538,83.41a9.71,9.71,0,0,1-7.44-2.85q-2.67-2.85-2.67-8.15V70.54q0-5.6,2.45-8.65a8.5,8.5,0,0,1,7-3q4.47,0,6.72,2.85t2.3,8.45v3H534.08a6.55,6.55,0,0,0,1.16,3.89,3.9,3.9,0,0,0,3.17,1.23,6.9,6.9,0,0,0,5.19-2.17L546,79.89a8,8,0,0,1-3.31,2.55A11.35,11.35,0,0,1,538,83.41Zm-3.9-14.54h6.2V68.3a6.72,6.72,0,0,0-.7-3.25,2.43,2.43,0,0,0-2.28-1.1A2.57,2.57,0,0,0,535,65.12,8.12,8.12,0,0,0,534.13,68.87Z" transform="translate(0 0)"/><path class="cls-3" d="M548.94,70.36q0-5.39,2.54-8.45a9.64,9.64,0,0,1,14.1,0q2.54,3.07,2.54,8.5v1.51q0,5.41-2.52,8.45a9.71,9.71,0,0,1-14.13,0q-2.53-3.05-2.53-8.48Zm6.22,1.56q0,6.39,3.39,6.39,3.13,0,3.37-5.33l0-2.62a10.09,10.09,0,0,0-.9-4.83,2.8,2.8,0,0,0-2.54-1.58A2.72,2.72,0,0,0,556,65.52a10.18,10.18,0,0,0-.89,4.83Z" transform="translate(0 0)"/><path class="cls-3" d="M582.07,76.62a1.93,1.93,0,0,0-.75-1.46A14.93,14.93,0,0,0,578,73.36a14,14,0,0,1-5.27-3.22A6.12,6.12,0,0,1,571.26,66a6.62,6.62,0,0,1,2.24-5.13,8.54,8.54,0,0,1,5.94-2,9.24,9.24,0,0,1,6.24,2A6.77,6.77,0,0,1,588,66.27h-6.2q0-2.89-2.41-2.89a2.24,2.24,0,0,0-1.62.61,2.26,2.26,0,0,0-.64,1.71,1.79,1.79,0,0,0,.7,1.39,15.39,15.39,0,0,0,3.31,1.72,13.69,13.69,0,0,1,5.35,3.12,6.36,6.36,0,0,1,1.57,4.46,6.23,6.23,0,0,1-2.39,5.1,9.66,9.66,0,0,1-6.26,1.93,10,10,0,0,1-4.6-1,7.72,7.72,0,0,1-3.12-2.84,7.3,7.3,0,0,1-1.13-3.92h5.89a3.75,3.75,0,0,0,.76,2.43,3,3,0,0,0,2.33.81Q582.07,78.88,582.07,76.62Z" transform="translate(0 0)"/><path class="cls-3" d="M610,71.87q0,5.58-1.92,8.56a6.34,6.34,0,0,1-5.7,3,5.52,5.52,0,0,1-4.64-2.34v11h-6.2V59.28h5.74l.22,2.17a5.56,5.56,0,0,1,4.84-2.61A6.49,6.49,0,0,1,608,61.6q1.91,2.76,2,8.45Zm-6.17-1.54a11.24,11.24,0,0,0-.76-4.88A2.65,2.65,0,0,0,600.51,64a2.94,2.94,0,0,0-2.78,1.6V76.77a3,3,0,0,0,2.82,1.54,2.57,2.57,0,0,0,2.55-1.56,12.37,12.37,0,0,0,.71-4.85Z" transform="translate(0 0)"/><path class="cls-3" d="M624.51,83a8.65,8.65,0,0,1-.53-1.84,5.3,5.3,0,0,1-4.51,2.28,6.67,6.67,0,0,1-4.94-2,6.92,6.92,0,0,1-2-5.1A7.17,7.17,0,0,1,615,70.58q2.37-2,6.84-2.08h1.88V66.6a3.57,3.57,0,0,0-.55-2.26,2,2,0,0,0-1.6-.66q-2.32,0-2.32,2.71H613A6.86,6.86,0,0,1,615.48,61a9.17,9.17,0,0,1,6.23-2.13,8.42,8.42,0,0,1,6,2,7.6,7.6,0,0,1,2.13,5.79V77.81a11.66,11.66,0,0,0,.88,4.79V83Zm-3.66-4.42a3.46,3.46,0,0,0,1.75-.42,2.94,2.94,0,0,0,1.07-1V72.22h-1.49a3.18,3.18,0,0,0-2.49,1,3.87,3.87,0,0,0-.91,2.69Q618.8,78.55,620.85,78.55Z" transform="translate(0 0)"/><path class="cls-3" d="M641.24,53.46v5.82h3.17v4.64h-3.17V75.7a3.47,3.47,0,0,0,.38,1.93,1.73,1.73,0,0,0,1.48.53,5.77,5.77,0,0,0,1.47-.15l0,4.82a9.65,9.65,0,0,1-3.42.59q-6,0-6.06-6.88V63.92h-2.74V59.28H635V53.46Z" transform="translate(0 0)"/><path class="cls-3" d="M647.43,53.15a3.2,3.2,0,0,1,.92-2.36,3.73,3.73,0,0,1,4.9,0,3.2,3.2,0,0,1,.92,2.36,3.37,3.37,0,1,1-6.74,0ZM653.93,83h-6.22V59.28h6.22Z" transform="translate(0 0)"/><path class="cls-3" d="M669.4,83a8.65,8.65,0,0,1-.53-1.84,5.3,5.3,0,0,1-4.51,2.28,6.67,6.67,0,0,1-4.94-2,6.92,6.92,0,0,1-2-5.1,7.17,7.17,0,0,1,2.38-5.76q2.37-2,6.84-2.08h1.88V66.6a3.57,3.57,0,0,0-.55-2.26,2,2,0,0,0-1.6-.66q-2.32,0-2.32,2.71h-6.2A6.86,6.86,0,0,1,660.37,61a9.17,9.17,0,0,1,6.23-2.13,8.42,8.42,0,0,1,6,2,7.6,7.6,0,0,1,2.13,5.79V77.81a11.66,11.66,0,0,0,.88,4.79V83Zm-3.66-4.42a3.46,3.46,0,0,0,1.75-.42,2.94,2.94,0,0,0,1.07-1V72.22h-1.49a3.18,3.18,0,0,0-2.49,1,3.87,3.87,0,0,0-.91,2.69Q663.69,78.55,665.74,78.55Z" transform="translate(0 0)"/><path class="cls-3" d="M685.3,83h-6.22V49.34h6.22Z" transform="translate(0 0)"/><path class="cls-3" d="M721.38,56.46H713.5V83H707V56.46h-7.75V51.09h22.09Z" transform="translate(0 0)"/><path class="cls-3" d="M730.35,83.41a9.71,9.71,0,0,1-7.44-2.85q-2.67-2.85-2.67-8.15V70.54q0-5.6,2.45-8.65a8.5,8.5,0,0,1,7-3q4.47,0,6.72,2.85t2.3,8.45v3H726.41a6.55,6.55,0,0,0,1.16,3.89,3.9,3.9,0,0,0,3.17,1.23,6.9,6.9,0,0,0,5.19-2.17l2.43,3.74a8,8,0,0,1-3.31,2.55A11.35,11.35,0,0,1,730.35,83.41Zm-3.9-14.54h6.2V68.3a6.72,6.72,0,0,0-.7-3.25,2.43,2.43,0,0,0-2.28-1.1,2.57,2.57,0,0,0-2.35,1.17A8.12,8.12,0,0,0,726.45,68.87Z" transform="translate(0 0)"/><path class="cls-3" d="M750.57,78.31q2.69,0,2.74-3.55h5.82A8.7,8.7,0,0,1,756.75,81a8.1,8.1,0,0,1-6,2.39,8.64,8.64,0,0,1-7-2.85q-2.41-2.85-2.45-8.39V70.3q0-5.58,2.38-8.52t7-2.93a8,8,0,0,1,6.17,2.42,9.84,9.84,0,0,1,2.3,6.86h-5.82a6.33,6.33,0,0,0-.66-3.1,2.24,2.24,0,0,0-2.1-1.08,2.5,2.5,0,0,0-2.32,1.16,9.9,9.9,0,0,0-.75,4.48V72a19.51,19.51,0,0,0,.29,4.06,3.06,3.06,0,0,0,.94,1.7A2.85,2.85,0,0,0,750.57,78.31Z" transform="translate(0 0)"/><path class="cls-3" d="M768.49,61.36a6.12,6.12,0,0,1,4.95-2.52,5.75,5.75,0,0,1,4.93,2.28q1.68,2.28,1.71,6.79V83h-6.22V68a5.42,5.42,0,0,0-.65-3,2.37,2.37,0,0,0-2.09-.93,2.93,2.93,0,0,0-2.63,1.55V83h-6.2V49.34h6.2Z" transform="translate(0 0)"/><path class="cls-3" d="M790,59.28l.17,2.34a6.57,6.57,0,0,1,5.5-2.78q6.11,0,6.28,8.56V83h-6.22V67.87a5.45,5.45,0,0,0-.6-2.92A2.35,2.35,0,0,0,793,64a2.89,2.89,0,0,0-2.63,1.73V83h-6.22V59.28Z" transform="translate(0 0)"/><path class="cls-3" d="M805.31,70.36q0-5.39,2.54-8.45a9.64,9.64,0,0,1,14.1,0q2.54,3.07,2.54,8.5v1.51q0,5.41-2.52,8.45a9.71,9.71,0,0,1-14.13,0q-2.53-3.05-2.53-8.48Zm6.22,1.56q0,6.39,3.39,6.39,3.13,0,3.37-5.33l0-2.62a10.09,10.09,0,0,0-.9-4.83,2.8,2.8,0,0,0-2.54-1.58,2.72,2.72,0,0,0-2.46,1.58,10.18,10.18,0,0,0-.89,4.83Z" transform="translate(0 0)"/><path class="cls-3" d="M834.38,83h-6.22V49.34h6.22Z" transform="translate(0 0)"/><path class="cls-3" d="M838,70.36q0-5.39,2.54-8.45a9.64,9.64,0,0,1,14.1,0q2.54,3.07,2.54,8.5v1.51q0,5.41-2.52,8.45a9.71,9.71,0,0,1-14.13,0Q838,77.3,838,71.87Zm6.22,1.56q0,6.39,3.39,6.39,3.13,0,3.37-5.33l0-2.62a10.09,10.09,0,0,0-.9-4.83,2.8,2.8,0,0,0-2.54-1.58,2.72,2.72,0,0,0-2.46,1.58,10.18,10.18,0,0,0-.89,4.83Z" transform="translate(0 0)"/><path class="cls-3" d="M860,70.41q0-5.82,2.1-8.69A6.88,6.88,0,0,1,868,58.85a5.68,5.68,0,0,1,5,2.54l.24-2.1h5.58V83q0,4.53-2.54,6.93t-7.29,2.4a12,12,0,0,1-4.09-.78,7.57,7.57,0,0,1-3.2-2l2.08-4.29a6.55,6.55,0,0,0,2.28,1.5,6.94,6.94,0,0,0,2.65.58,3.88,3.88,0,0,0,3-1,4.75,4.75,0,0,0,.93-3.21v-2A5.55,5.55,0,0,1,868,83.41a6.74,6.74,0,0,1-5.86-2.94Q860,77.52,860,72.16Zm6.2,1.55a10.1,10.1,0,0,0,.85,4.78,2.9,2.9,0,0,0,2.71,1.5,3.16,3.16,0,0,0,2.82-1.38V65.54A3.1,3.1,0,0,0,869.79,64a3,3,0,0,0-2.73,1.51,10,10,0,0,0-.89,4.86Z" transform="translate(0 0)"/><path class="cls-3" d="M890.74,72.66l3.15-13.38h6.61l-7.79,27.24q-1.75,6-6.59,6a9.17,9.17,0,0,1-2.54-.42V87.29l.72,0a3.56,3.56,0,0,0,2.18-.56,3.5,3.5,0,0,0,1.11-1.94l.48-1.6-6.83-23.93h6.66Z" transform="translate(0 0)"/><path class="cls-3" d="M513.67,134.89a8.64,8.64,0,0,1-.53-1.84,5.3,5.3,0,0,1-4.51,2.28,6.67,6.67,0,0,1-4.94-2,6.92,6.92,0,0,1-2-5.1,7.17,7.17,0,0,1,2.38-5.76q2.37-2,6.84-2.08h1.88v-1.9a3.57,3.57,0,0,0-.55-2.25,2,2,0,0,0-1.6-.66q-2.32,0-2.32,2.71h-6.2a6.86,6.86,0,0,1,2.46-5.42,9.17,9.17,0,0,1,6.23-2.13,8.42,8.42,0,0,1,6,2,7.6,7.6,0,0,1,2.13,5.79v11.14a11.66,11.66,0,0,0,.88,4.79v.37ZM510,130.47a3.46,3.46,0,0,0,1.75-.42,2.94,2.94,0,0,0,1.07-1v-4.93h-1.49a3.18,3.18,0,0,0-2.49,1,3.87,3.87,0,0,0-.91,2.69Q508,130.47,510,130.47Z" transform="translate(0 0)"/><path class="cls-3" d="M529,111.2l.17,2.34a6.57,6.57,0,0,1,5.5-2.78q6.11,0,6.28,8.56v15.57h-6.22V119.79a5.46,5.46,0,0,0-.6-2.92A2.35,2.35,0,0,0,532,116a2.89,2.89,0,0,0-2.63,1.73v17.21h-6.22V111.2Z" transform="translate(0 0)"/><path class="cls-3" d="M544.36,122.33q0-5.82,2-8.69a6.52,6.52,0,0,1,5.74-2.87,5.53,5.53,0,0,1,4.55,2.37V101.26h6.24v33.63h-5.63l-.28-2.41a5.71,5.71,0,0,1-4.9,2.85,6.47,6.47,0,0,1-5.68-2.85q-2-2.85-2-8.36Zm6.22,1.55a11.31,11.31,0,0,0,.74,4.89,2.62,2.62,0,0,0,2.52,1.39,3,3,0,0,0,2.78-1.64V117.71a3,3,0,0,0-2.76-1.75,2.67,2.67,0,0,0-2.5,1.38,10.74,10.74,0,0,0-.79,4.9Z" transform="translate(0 0)"/><path class="cls-3" d="M593.27,128.37h-8.78l-1.71,6.52H576l10-31.88h5.89l10,31.88H595ZM585.89,123h6l-3-11.36Z" transform="translate(0 0)"/><path class="cls-3" d="M623,123.79q0,5.58-1.92,8.56a6.34,6.34,0,0,1-5.7,3,5.51,5.51,0,0,1-4.64-2.34v11h-6.2V111.2h5.74l.22,2.17a5.56,5.56,0,0,1,4.84-2.61,6.49,6.49,0,0,1,5.7,2.76q1.91,2.76,2,8.45Zm-6.17-1.54a11.24,11.24,0,0,0-.76-4.87,2.65,2.65,0,0,0-2.55-1.43,2.94,2.94,0,0,0-2.78,1.6v11.13a3,3,0,0,0,2.82,1.54,2.57,2.57,0,0,0,2.55-1.56,12.37,12.37,0,0,0,.71-4.85Z" transform="translate(0 0)"/><path class="cls-3" d="M645,123.79q0,5.58-1.92,8.56a6.34,6.34,0,0,1-5.7,3,5.51,5.51,0,0,1-4.64-2.34v11h-6.2V111.2h5.74l.22,2.17a5.56,5.56,0,0,1,4.84-2.61,6.49,6.49,0,0,1,5.7,2.76q1.91,2.76,2,8.45Zm-6.17-1.54a11.24,11.24,0,0,0-.76-4.87,2.65,2.65,0,0,0-2.55-1.43,2.94,2.94,0,0,0-2.78,1.6v11.13a3,3,0,0,0,2.82,1.54,2.57,2.57,0,0,0,2.55-1.56,12.37,12.37,0,0,0,.71-4.85Z" transform="translate(0 0)"/><path class="cls-3" d="M655,134.89h-6.22V101.26H655Z" transform="translate(0 0)"/><path class="cls-3" d="M659.18,105.07a3.2,3.2,0,0,1,.92-2.36,3.73,3.73,0,0,1,4.9,0,3.2,3.2,0,0,1,.92,2.36,3.37,3.37,0,1,1-6.74,0Zm6.5,29.82h-6.22V111.2h6.22Z" transform="translate(0 0)"/><path class="cls-3" d="M678.58,130.23q2.69,0,2.74-3.55h5.82a8.71,8.71,0,0,1-2.39,6.26,8.1,8.1,0,0,1-6,2.39,8.64,8.64,0,0,1-7-2.85q-2.41-2.85-2.45-8.39v-1.88q0-5.58,2.38-8.52t7-2.93a8,8,0,0,1,6.17,2.42,9.84,9.84,0,0,1,2.3,6.86h-5.82a6.33,6.33,0,0,0-.66-3.1,2.24,2.24,0,0,0-2.1-1.08,2.5,2.5,0,0,0-2.32,1.16,9.91,9.91,0,0,0-.75,4.48v2.42a19.51,19.51,0,0,0,.29,4.06,3.06,3.06,0,0,0,.94,1.7A2.85,2.85,0,0,0,678.58,130.23Z" transform="translate(0 0)"/><path class="cls-3" d="M701.65,134.89a8.64,8.64,0,0,1-.53-1.84,5.3,5.3,0,0,1-4.51,2.28,6.67,6.67,0,0,1-4.94-2,6.92,6.92,0,0,1-2-5.1,7.17,7.17,0,0,1,2.38-5.76q2.37-2,6.84-2.08h1.88v-1.9a3.57,3.57,0,0,0-.55-2.25,2,2,0,0,0-1.6-.66q-2.32,0-2.32,2.71h-6.2a6.86,6.86,0,0,1,2.46-5.42,9.17,9.17,0,0,1,6.23-2.13,8.42,8.42,0,0,1,6,2,7.6,7.6,0,0,1,2.13,5.79v11.14a11.66,11.66,0,0,0,.88,4.79v.37ZM698,130.47a3.46,3.46,0,0,0,1.75-.42,2.94,2.94,0,0,0,1.07-1v-4.93h-1.49a3.18,3.18,0,0,0-2.49,1,3.87,3.87,0,0,0-.91,2.69Q695.93,130.47,698,130.47Z" transform="translate(0 0)"/><path class="cls-3" d="M718.38,105.38v5.82h3.17v4.64h-3.17v11.78a3.47,3.47,0,0,0,.38,1.93,1.73,1.73,0,0,0,1.48.53,5.82,5.82,0,0,0,1.47-.15l0,4.82a9.64,9.64,0,0,1-3.42.59q-6,0-6.06-6.88v-12.6h-2.74V111.2h2.74v-5.82Z" transform="translate(0 0)"/><path class="cls-3" d="M724.56,105.07a3.2,3.2,0,0,1,.92-2.36,3.73,3.73,0,0,1,4.9,0,3.2,3.2,0,0,1,.92,2.36,3.37,3.37,0,1,1-6.74,0Zm6.5,29.82h-6.22V111.2h6.22Z" transform="translate(0 0)"/><path class="cls-3" d="M734.59,122.28q0-5.39,2.54-8.45a9.64,9.64,0,0,1,14.1,0q2.54,3.07,2.54,8.5v1.51q0,5.41-2.52,8.45a9.71,9.71,0,0,1-14.13,0q-2.53-3.05-2.53-8.48Zm6.22,1.56q0,6.39,3.39,6.39,3.13,0,3.37-5.33l0-2.62a10.09,10.09,0,0,0-.9-4.83,2.8,2.8,0,0,0-2.54-1.58,2.72,2.72,0,0,0-2.46,1.58,10.18,10.18,0,0,0-.89,4.83Z" transform="translate(0 0)"/><path class="cls-3" d="M763,111.2l.17,2.34a6.57,6.57,0,0,1,5.5-2.78q6.11,0,6.28,8.56v15.57h-6.22V119.79a5.46,5.46,0,0,0-.6-2.92A2.35,2.35,0,0,0,766,116a2.89,2.89,0,0,0-2.63,1.73v17.21H757.2V111.2Z" transform="translate(0 0)"/><path class="cls-3" d="M789.41,128.54a1.93,1.93,0,0,0-.75-1.46,15,15,0,0,0-3.36-1.81,14,14,0,0,1-5.27-3.22,6.11,6.11,0,0,1-1.43-4.14,6.62,6.62,0,0,1,2.24-5.13,8.54,8.54,0,0,1,5.94-2,9.24,9.24,0,0,1,6.24,2,6.77,6.77,0,0,1,2.34,5.41h-6.2q0-2.89-2.41-2.89a2.24,2.24,0,0,0-1.62.61,2.26,2.26,0,0,0-.64,1.71,1.79,1.79,0,0,0,.7,1.39,15.33,15.33,0,0,0,3.31,1.72,13.69,13.69,0,0,1,5.35,3.12,6.36,6.36,0,0,1,1.57,4.46,6.23,6.23,0,0,1-2.39,5.1,9.66,9.66,0,0,1-6.26,1.93,10,10,0,0,1-4.6-1,7.72,7.72,0,0,1-3.12-2.84,7.3,7.3,0,0,1-1.13-3.92h5.89a3.75,3.75,0,0,0,.76,2.43,3,3,0,0,0,2.33.81Q789.4,130.8,789.41,128.54Z" transform="translate(0 0)"/><path class="cls-3" d="M831.53,124.27q-.24,5.45-3.07,8.25t-8,2.8q-5.41,0-8.29-3.56t-2.88-10.15v-5.36q0-6.57,3-10.13a10.2,10.2,0,0,1,8.28-3.56q5.21,0,7.92,2.91t3.08,8.36h-6.46q-.09-3.37-1-4.65t-3.49-1.28a3.9,3.9,0,0,0-3.66,1.81q-1.07,1.81-1.14,5.94v6q0,4.75,1.06,6.52A3.9,3.9,0,0,0,820.5,130q2.54,0,3.5-1.24t1.09-4.48Z" transform="translate(0 0)"/><path class="cls-3" d="M844.56,135.33a9.71,9.71,0,0,1-7.44-2.85q-2.67-2.85-2.67-8.14v-1.88q0-5.6,2.45-8.65a8.5,8.5,0,0,1,7-3q4.47,0,6.72,2.85t2.3,8.45v3H840.62a6.55,6.55,0,0,0,1.16,3.89,3.9,3.9,0,0,0,3.17,1.23,6.9,6.9,0,0,0,5.19-2.17l2.43,3.74a8,8,0,0,1-3.31,2.55A11.35,11.35,0,0,1,844.56,135.33Zm-3.9-14.54h6.2v-.58a6.72,6.72,0,0,0-.7-3.25,2.43,2.43,0,0,0-2.28-1.1,2.57,2.57,0,0,0-2.35,1.17A8.12,8.12,0,0,0,840.67,120.79Z" transform="translate(0 0)"/><path class="cls-3" d="M862,111.2l.17,2.34a6.57,6.57,0,0,1,5.5-2.78q6.11,0,6.28,8.56v15.57h-6.22V119.79a5.46,5.46,0,0,0-.6-2.92,2.35,2.35,0,0,0-2.11-.91,2.89,2.89,0,0,0-2.63,1.73v17.21h-6.22V111.2Z" transform="translate(0 0)"/><path class="cls-3" d="M885.32,105.38v5.82h3.17v4.64h-3.17v11.78a3.47,3.47,0,0,0,.38,1.93,1.73,1.73,0,0,0,1.48.53,5.82,5.82,0,0,0,1.47-.15l0,4.82a9.64,9.64,0,0,1-3.42.59q-6,0-6.06-6.88v-12.6h-2.74V111.2h2.74v-5.82Z" transform="translate(0 0)"/><path class="cls-3" d="M900.91,135.33a9.71,9.71,0,0,1-7.44-2.85q-2.67-2.85-2.67-8.14v-1.88q0-5.6,2.45-8.65a8.5,8.5,0,0,1,7-3q4.47,0,6.72,2.85t2.3,8.45v3H897a6.55,6.55,0,0,0,1.16,3.89,3.9,3.9,0,0,0,3.17,1.23,6.9,6.9,0,0,0,5.19-2.17l2.43,3.74a8,8,0,0,1-3.31,2.55A11.35,11.35,0,0,1,900.91,135.33ZM897,120.79h6.2v-.58a6.72,6.72,0,0,0-.7-3.25,2.43,2.43,0,0,0-2.28-1.1,2.57,2.57,0,0,0-2.35,1.17A8.12,8.12,0,0,0,897,120.79Z" transform="translate(0 0)"/><path class="cls-3" d="M924.34,117.18l-2.06-.17a3.38,3.38,0,0,0-3.44,2.23v15.65h-6.22V111.2h5.85l.17,2.56q1.47-3,4.05-3a4.35,4.35,0,0,1,1.71.29Z" transform="translate(0 0)"/></svg>